<?xml version="1.0" encoding="UTF-8" standalone="no"?>
<svg
   xmlns:dc="http://purl.org/dc/elements/1.1/"
   xmlns:cc="http://creativecommons.org/ns#"
   xmlns:rdf="http://www.w3.org/1999/02/22-rdf-syntax-ns#"
   xmlns:svg="http://www.w3.org/2000/svg"
   xmlns="http://www.w3.org/2000/svg"
   xmlns:sodipodi="http://sodipodi.sourceforge.net/DTD/sodipodi-0.dtd"
   xmlns:inkscape="http://www.inkscape.org/namespaces/inkscape"
   width="700pt"
   height="700pt"
   version="1.1"
   viewBox="0 0 700 700"
   id="svg2613"
   sodipodi:docname="noun-root-2471264.svg"
   inkscape:version="1.0.1 (c497b03c, 2020-09-10)">
  <metadata
     id="metadata2617">
    <rdf:RDF>
      <cc:Work
         rdf:about="">
        <dc:format>image/svg+xml</dc:format>
        <dc:type
           rdf:resource="http://purl.org/dc/dcmitype/StillImage" />
        <dc:title></dc:title>
      </cc:Work>
    </rdf:RDF>
  </metadata>
  <sodipodi:namedview
     pagecolor="#ffffff"
     bordercolor="#666666"
     borderopacity="1"
     objecttolerance="10"
     gridtolerance="10"
     guidetolerance="10"
     inkscape:pageopacity="0"
     inkscape:pageshadow="2"
     inkscape:window-width="1920"
     inkscape:window-height="1052"
     id="namedview2615"
     showgrid="false"
     inkscape:zoom="0.7875"
     inkscape:cx="466.66667"
     inkscape:cy="466.66667"
     inkscape:window-x="0"
     inkscape:window-y="0"
     inkscape:window-maximized="0"
     inkscape:current-layer="g2611" />
  <defs
     id="defs2527">
    <symbol
       id="s"
       overflow="visible">
      <path
         d="m6.2969-0.375c-0.32422 0.16797-0.66406 0.29297-1.0156 0.375-0.35547 0.09375-0.72656 0.14062-1.1094 0.14062-1.1367 0-2.0391-0.31641-2.7031-0.95312-0.66797-0.64453-1-1.5156-1-2.6094s0.33203-1.957 1-2.5938c0.66406-0.63281 1.5664-0.95312 2.7031-0.95312 0.38281 0 0.75391 0.042969 1.1094 0.125 0.35156 0.085938 0.69141 0.21484 1.0156 0.39062v1.4062c-0.33594-0.21875-0.66406-0.37891-0.98438-0.48438-0.3125-0.10156-0.64844-0.15625-1-0.15625-0.625 0-1.1211 0.20312-1.4844 0.60938-0.35547 0.39844-0.53125 0.94922-0.53125 1.6562 0 0.71094 0.17578 1.2656 0.53125 1.6719 0.36328 0.40625 0.85938 0.60938 1.4844 0.60938 0.35156 0 0.6875-0.050781 1-0.15625 0.32031-0.10156 0.64844-0.26953 0.98438-0.5z"
         id="path2470" />
    </symbol>
    <symbol
       id="c"
       overflow="visible">
      <path
         d="m4.6094-3.7344c-0.14844-0.070313-0.29297-0.125-0.4375-0.15625-0.13672-0.03125-0.27734-0.046875-0.42188-0.046875-0.42969 0-0.75781 0.13672-0.98438 0.40625-0.21875 0.27344-0.32812 0.66406-0.32812 1.1719v2.3594h-1.6562v-5.1406h1.6562v0.84375c0.20703-0.33203 0.44531-0.57812 0.71875-0.73438 0.26953-0.15625 0.59766-0.23438 0.98438-0.23438 0.050781 0 0.10938 0.007813 0.17188 0.015625 0.070312 0 0.16406 0.011719 0.28125 0.03125z"
         id="path2473" />
    </symbol>
    <symbol
       id="b"
       overflow="visible">
      <path
         d="m5.9219-2.5781v0.46875h-3.8438c0.039063 0.38672 0.17969 0.67969 0.42188 0.875 0.23828 0.1875 0.57031 0.28125 1 0.28125 0.34375 0 0.69141-0.050781 1.0469-0.15625 0.36328-0.10156 0.73828-0.25781 1.125-0.46875v1.2656c-0.38672 0.14844-0.77734 0.25781-1.1719 0.32812-0.38672 0.082031-0.77344 0.125-1.1562 0.125-0.92969 0-1.6523-0.23438-2.1719-0.70312-0.51172-0.47656-0.76562-1.1445-0.76562-2 0-0.83203 0.25-1.4883 0.75-1.9688 0.50781-0.48828 1.207-0.73438 2.0938-0.73438 0.8125 0 1.457 0.24609 1.9375 0.73438 0.48828 0.49219 0.73438 1.1406 0.73438 1.9531zm-1.6875-0.54688c0-0.3125-0.09375-0.5625-0.28125-0.75-0.17969-0.19531-0.41797-0.29688-0.71875-0.29688-0.3125 0-0.57031 0.09375-0.76562 0.28125-0.19922 0.17969-0.32422 0.43359-0.375 0.76562z"
         id="path2476" />
    </symbol>
    <symbol
       id="a"
       overflow="visible">
      <path
         d="m3.0938-2.3125c-0.34375 0-0.60547 0.058594-0.78125 0.17188-0.16797 0.11719-0.25 0.28906-0.25 0.51562 0 0.21094 0.066406 0.375 0.20312 0.5 0.13281 0.11719 0.32812 0.17188 0.57812 0.17188 0.3125 0 0.57031-0.10938 0.78125-0.32812 0.20703-0.22656 0.3125-0.50781 0.3125-0.84375v-0.1875zm2.5-0.625v2.9375h-1.6562v-0.76562c-0.21875 0.3125-0.46875 0.54297-0.75 0.6875-0.27344 0.14453-0.60156 0.21875-0.98438 0.21875-0.53125 0-0.96484-0.15625-1.2969-0.46875-0.33594-0.3125-0.5-0.71875-0.5-1.2188 0-0.59375 0.20312-1.0312 0.60938-1.3125 0.41406-0.28125 1.0664-0.42188 1.9531-0.42188h0.96875v-0.14062c0-0.25781-0.10547-0.44531-0.3125-0.5625-0.19922-0.125-0.51562-0.1875-0.95312-0.1875-0.34375 0-0.66797 0.039063-0.96875 0.10938-0.30469 0.074219-0.58594 0.17969-0.84375 0.3125v-1.25c0.34375-0.082031 0.69141-0.14453 1.0469-0.1875 0.35156-0.050781 0.70703-0.078125 1.0625-0.078125 0.92578 0 1.5938 0.1875 2 0.5625 0.41406 0.36719 0.625 0.95312 0.625 1.7656z"
         id="path2479" />
    </symbol>
    <symbol
       id="e"
       overflow="visible">
      <path
         d="m2.5781-6.5938v1.4531h1.7031v1.1719h-1.7031v2.1875c0 0.24219 0.046875 0.40234 0.14062 0.48438 0.09375 0.085937 0.28125 0.125 0.5625 0.125h0.84375v1.1719h-1.4062c-0.64844 0-1.1055-0.13281-1.375-0.40625-0.27344-0.26953-0.40625-0.72656-0.40625-1.375v-2.1875h-0.8125v-1.1719h0.8125v-1.4531z"
         id="path2482" />
    </symbol>
    <symbol
       id="l"
       overflow="visible">
      <path
         d="m4.2812-4.3906v-2.75h1.6562v7.1406h-1.6562v-0.75c-0.23047 0.3125-0.48047 0.54297-0.75 0.6875-0.27344 0.13281-0.58594 0.20312-0.9375 0.20312-0.63672 0-1.1562-0.25-1.5625-0.75-0.40625-0.50781-0.60938-1.1602-0.60938-1.9531 0-0.78906 0.20312-1.4375 0.60938-1.9375 0.40625-0.50781 0.92578-0.76562 1.5625-0.76562 0.35156 0 0.66406 0.074219 0.9375 0.21875 0.26953 0.14844 0.51953 0.36719 0.75 0.65625zm-1.0781 3.3281c0.35156 0 0.61719-0.125 0.79688-0.375 0.1875-0.25781 0.28125-0.63281 0.28125-1.125 0-0.48828-0.09375-0.85938-0.28125-1.1094-0.17969-0.25781-0.44531-0.39062-0.79688-0.39062-0.35547 0-0.625 0.13281-0.8125 0.39062-0.17969 0.25-0.26562 0.62109-0.26562 1.1094 0 0.49219 0.085938 0.86719 0.26562 1.125 0.1875 0.25 0.45703 0.375 0.8125 0.375z"
         id="path2485" />
    </symbol>
    <symbol
       id="d"
       overflow="visible">
      <path
         d="m3.5156-1.0625c0.35156 0 0.625-0.125 0.8125-0.375 0.1875-0.25781 0.28125-0.63281 0.28125-1.125 0-0.48828-0.09375-0.85938-0.28125-1.1094-0.1875-0.25781-0.46094-0.39062-0.8125-0.39062-0.34375 0-0.60938 0.13281-0.79688 0.39062-0.1875 0.25-0.28125 0.62109-0.28125 1.1094 0 0.49219 0.09375 0.86719 0.28125 1.125 0.1875 0.25 0.45312 0.375 0.79688 0.375zm-1.0781-3.3281c0.21875-0.28906 0.46094-0.50781 0.73438-0.65625 0.28125-0.14453 0.59766-0.21875 0.95312-0.21875 0.63281 0 1.1562 0.25781 1.5625 0.76562 0.40625 0.5 0.60938 1.1484 0.60938 1.9375 0 0.79297-0.20312 1.4453-0.60938 1.9531-0.40625 0.5-0.92969 0.75-1.5625 0.75-0.35547 0-0.67188-0.074219-0.95312-0.21875-0.27344-0.14453-0.51562-0.36719-0.73438-0.67188v0.75h-1.6562v-7.1406h1.6562z"
         id="path2488" />
    </symbol>
    <symbol
       id="k"
       overflow="visible">
      <path
         d="m0.10938-5.1406h1.6406l1.3906 3.4844 1.1719-3.4844h1.6406l-2.1562 5.625c-0.21875 0.57031-0.47656 0.97266-0.76562 1.2031-0.29297 0.22656-0.67188 0.34375-1.1406 0.34375h-0.95312v-1.0781h0.51562c0.28125 0 0.48438-0.046875 0.60938-0.14062 0.125-0.085938 0.22266-0.24219 0.29688-0.46875l0.046875-0.14062z"
         id="path2491" />
    </symbol>
    <symbol
       id="j"
       overflow="visible">
      <path
         d="m0.32812-5.1406h1.5938l0.85938 3.5469 0.875-3.5469h1.375l0.85938 3.5156 0.85938-3.5156h1.5938l-1.3438 5.1406h-1.7969l-0.85938-3.5312-0.875 3.5312h-1.7812z"
         id="path2494" />
    </symbol>
    <symbol
       id="g"
       overflow="visible">
      <path
         d="m5.9531-3.125v3.125h-1.6562v-2.3906c0-0.44531-0.011719-0.75391-0.03125-0.92188-0.023437-0.16406-0.054687-0.28906-0.09375-0.375-0.0625-0.10156-0.15234-0.17969-0.26562-0.23438-0.11719-0.0625-0.24219-0.09375-0.375-0.09375-0.34375 0-0.61719 0.13281-0.8125 0.39062-0.1875 0.26172-0.28125 0.625-0.28125 1.0938v2.5312h-1.6562v-7.1406h1.6562v2.75c0.23828-0.28906 0.5-0.50781 0.78125-0.65625 0.28125-0.14453 0.58594-0.21875 0.92188-0.21875 0.59375 0 1.0391 0.18359 1.3438 0.54688 0.3125 0.36719 0.46875 0.89844 0.46875 1.5938z"
         id="path2497" />
    </symbol>
    <symbol
       id="i"
       overflow="visible">
      <path
         d="m5.5469-4.2812c0.20703-0.32031 0.45312-0.56641 0.73438-0.73438 0.28906-0.16406 0.60938-0.25 0.95312-0.25 0.58203 0 1.0312 0.18359 1.3438 0.54688 0.3125 0.36719 0.46875 0.89844 0.46875 1.5938v3.125h-1.6562v-2.6719-0.125c0.007813-0.039063 0.015625-0.10156 0.015625-0.1875 0-0.36328-0.058594-0.625-0.17188-0.78125-0.10547-0.16406-0.27734-0.25-0.51562-0.25-0.3125 0-0.55469 0.13281-0.71875 0.39062-0.16797 0.25-0.25781 0.62109-0.26562 1.1094v2.5156h-1.6562v-2.6719c0-0.57031-0.046875-0.9375-0.14062-1.0938-0.09375-0.16406-0.26562-0.25-0.51562-0.25-0.32422 0-0.57031 0.13281-0.73438 0.39062-0.16797 0.25-0.25 0.61719-0.25 1.0938v2.5312h-1.6562v-5.1406h1.6562v0.75c0.19531-0.28125 0.42578-0.49219 0.6875-0.64062 0.25781-0.15625 0.54688-0.23438 0.85938-0.23438 0.35156 0 0.66406 0.089844 0.9375 0.26562 0.28125 0.16797 0.48828 0.40625 0.625 0.71875z"
         id="path2500" />
    </symbol>
    <symbol
       id="h"
       overflow="visible">
      <path
         d="m5.9531-3.125v3.125h-1.6562v-2.3906c0-0.44531-0.011719-0.75391-0.03125-0.92188-0.023437-0.16406-0.054687-0.28906-0.09375-0.375-0.0625-0.10156-0.15234-0.17969-0.26562-0.23438-0.11719-0.0625-0.24219-0.09375-0.375-0.09375-0.34375 0-0.61719 0.13281-0.8125 0.39062-0.1875 0.26172-0.28125 0.625-0.28125 1.0938v2.5312h-1.6562v-5.1406h1.6562v0.75c0.23828-0.28906 0.5-0.50781 0.78125-0.65625 0.28125-0.14453 0.58594-0.21875 0.92188-0.21875 0.59375 0 1.0391 0.18359 1.3438 0.54688 0.3125 0.36719 0.46875 0.89844 0.46875 1.5938z"
         id="path2503" />
    </symbol>
    <symbol
       id="r"
       overflow="visible">
      <path
         d="m4.1719-7.1406v1.0781h-0.90625c-0.24219 0-0.40625 0.042969-0.5 0.125-0.085937 0.085938-0.125 0.23047-0.125 0.4375v0.35938h1.4062v1.1719h-1.4062v3.9688h-1.6406v-3.9688h-0.82812v-1.1719h0.82812v-0.35938c0-0.55078 0.15625-0.96094 0.46875-1.2344 0.3125-0.26953 0.78906-0.40625 1.4375-0.40625z"
         id="path2506" />
    </symbol>
    <symbol
       id="f"
       overflow="visible">
      <path
         d="m3.2344-4.0781c-0.36719 0-0.64844 0.13281-0.84375 0.39062-0.1875 0.26172-0.28125 0.63672-0.28125 1.125 0 0.49219 0.09375 0.86719 0.28125 1.125 0.19531 0.26172 0.47656 0.39062 0.84375 0.39062 0.35156 0 0.625-0.12891 0.8125-0.39062 0.19531-0.25781 0.29688-0.63281 0.29688-1.125 0-0.48828-0.10156-0.86328-0.29688-1.125-0.1875-0.25781-0.46094-0.39062-0.8125-0.39062zm0-1.1875c0.88281 0 1.5703 0.24219 2.0625 0.71875 0.5 0.48047 0.75 1.1406 0.75 1.9844s-0.25 1.5078-0.75 1.9844c-0.49219 0.48047-1.1797 0.71875-2.0625 0.71875-0.88672 0-1.5781-0.23828-2.0781-0.71875-0.5-0.47656-0.75-1.1406-0.75-1.9844s0.25-1.5039 0.75-1.9844c0.5-0.47656 1.1914-0.71875 2.0781-0.71875z"
         id="path2509" />
    </symbol>
    <symbol
       id="q"
       overflow="visible">
      <path
         d="m0.85938-6.8438h1.9688l2.5 4.6875v-4.6875h1.6719v6.8438h-1.9688l-2.5-4.7031v4.7031h-1.6719z"
         id="path2512" />
    </symbol>
    <symbol
       id="p"
       overflow="visible">
      <path
         d="m0.73438-2v-3.1406h1.6562v0.51562c0 0.28125-0.007813 0.63672-0.015625 1.0625v0.82812c0 0.41797 0.007812 0.71875 0.03125 0.90625 0.019531 0.17969 0.054688 0.30859 0.10938 0.39062 0.070313 0.10547 0.16016 0.1875 0.26562 0.25 0.10156 0.054688 0.22656 0.078125 0.375 0.078125 0.34375 0 0.60938-0.12891 0.79688-0.39062 0.19531-0.25781 0.29688-0.625 0.29688-1.0938v-2.5469h1.6406v5.1406h-1.6406v-0.75c-0.24219 0.30469-0.5 0.52734-0.78125 0.67188-0.28125 0.14453-0.58984 0.21875-0.92188 0.21875-0.58594 0-1.0312-0.17969-1.3438-0.54688-0.3125-0.36328-0.46875-0.89453-0.46875-1.5938z"
         id="path2515" />
    </symbol>
    <symbol
       id="o"
       overflow="visible">
      <path
         d="m0.85938-6.8438h2.9375c0.86328 0 1.5312 0.19531 2 0.57812 0.46875 0.38672 0.70312 0.9375 0.70312 1.6562s-0.23438 1.2734-0.70312 1.6562c-0.46875 0.38672-1.1367 0.57812-2 0.57812h-1.1719v2.375h-1.7656zm1.7656 1.2812v1.9062h0.98438c0.34375 0 0.60156-0.082031 0.78125-0.25 0.1875-0.16406 0.28125-0.39844 0.28125-0.70312 0-0.3125-0.09375-0.54688-0.28125-0.70312-0.17969-0.16406-0.4375-0.25-0.78125-0.25z"
         id="path2518" />
    </symbol>
    <symbol
       id="n"
       overflow="visible">
      <path
         d="m0.78125-5.1406h1.6562v5.0469c0 0.6875-0.16797 1.2109-0.5 1.5781-0.33594 0.36328-0.8125 0.54688-1.4375 0.54688h-0.8125v-1.0781h0.28125c0.3125 0 0.52344-0.074219 0.64062-0.21875 0.11328-0.13672 0.17188-0.41406 0.17188-0.82812zm0-2h1.6562v1.3438h-1.6562z"
         id="path2521" />
    </symbol>
    <symbol
       id="m"
       overflow="visible">
      <path
         d="m4.9375-4.9688v1.3281c-0.21875-0.14453-0.44531-0.25391-0.67188-0.32812-0.23047-0.070312-0.46484-0.10938-0.70312-0.10938-0.46094 0-0.82031 0.13672-1.0781 0.40625-0.25 0.26172-0.375 0.63281-0.375 1.1094 0 0.48047 0.125 0.85547 0.375 1.125 0.25781 0.26172 0.61719 0.39062 1.0781 0.39062 0.25781 0 0.50391-0.035156 0.73438-0.10938 0.22656-0.070312 0.44141-0.1875 0.64062-0.34375v1.3438c-0.26172 0.09375-0.52344 0.16406-0.78125 0.21875-0.26172 0.050781-0.52734 0.078125-0.79688 0.078125-0.92969 0-1.6523-0.23828-2.1719-0.71875-0.52344-0.47656-0.78125-1.1406-0.78125-1.9844s0.25781-1.5039 0.78125-1.9844c0.51953-0.47656 1.2422-0.71875 2.1719-0.71875 0.26953 0 0.53516 0.027344 0.79688 0.078125 0.25781 0.054688 0.51953 0.125 0.78125 0.21875z"
         id="path2524" />
    </symbol>
  </defs>
  <g
     id="g2611">
    <path
       d="m 337.79,163.49 c 0,-35.703 -22.551,-46.98 -3.7578,-62.012 5.6367,-1.8789 3.7578,-9.3945 3.7578,-15.035 V 5.638 c 13.156,-7.5156 62.012,-7.5156 56.375,3.7578 -3.7578,11.273 3.7578,24.43 3.7578,35.703 3.7578,45.102 7.5156,90.203 7.5156,135.3 0,5.6367 3.7578,9.3945 9.3945,11.273 13.156,9.3945 18.793,11.273 30.066,22.551 13.156,13.156 18.793,18.793 37.582,24.43 9.3945,3.7578 48.859,13.156 52.617,18.793 1.8789,3.7578 -1.8789,5.6367 -5.6367,5.6367 -7.5156,-1.8789 -18.793,-5.6367 -26.309,-7.5156 -22.551,-3.7578 -41.344,-7.5156 -60.133,-20.672 -1.8789,-1.8789 -11.273,-7.5156 -15.035,-5.6367 -3.7578,1.8789 0,11.273 1.8789,15.035 1.8789,5.6367 9.3945,11.273 15.035,16.914 3.7578,1.8789 15.035,15.035 13.156,18.793 0,3.7578 -3.7578,1.8789 -5.6367,0 -3.7578,-1.8789 -11.273,-9.3945 -15.035,-13.156 -7.5156,-5.6367 -13.156,-7.5156 -20.672,-13.156 -1.8789,-1.8789 -7.5156,-11.273 -11.273,-7.5156 -1.8789,1.8789 0,13.156 0,16.914 5.6367,13.156 18.793,18.793 31.945,22.551 7.5156,1.8789 11.273,5.6367 18.793,5.6367 7.5156,3.7578 13.156,5.6367 20.672,7.5156 28.188,11.273 33.824,20.672 50.738,41.344 0,1.8789 3.7578,5.6367 0,5.6367 -5.6367,1.8789 -16.914,-13.156 -20.672,-16.914 -15.035,-15.035 -30.066,-16.914 -48.859,-20.672 -5.6367,-1.8789 -7.5156,-1.8789 -7.5156,3.7578 0,9.3945 13.156,41.344 16.914,48.859 5.6367,9.3945 13.156,15.035 20.672,22.551 0,1.8789 9.3945,13.156 5.6367,15.035 -3.7578,0 -11.273,-9.3945 -13.156,-13.156 -9.3945,-11.273 -16.914,-13.156 -24.43,-28.188 -11.273,-18.793 -22.551,-46.98 -48.859,-50.738 -7.5156,0 -7.5156,3.7578 -9.3945,11.273 v 1.8789 c -1.8789,13.156 3.7578,28.188 13.156,39.465 l 22.551,22.551 c 3.7578,3.7578 11.273,9.3945 16.914,15.035 15.035,11.273 22.551,16.914 33.824,35.703 3.7578,9.3945 7.5156,15.035 15.035,22.551 1.8789,1.8789 11.273,9.3945 7.5156,11.273 -1.8789,0 -7.5156,-3.7578 -9.3945,-5.6367 -11.273,-9.3945 -15.035,-15.035 -20.672,-26.309 -7.5156,-9.3945 -15.035,-16.914 -26.309,-20.672 -5.6367,-1.8789 -11.273,-1.8789 -9.3945,5.6367 1.8789,1.8789 1.8789,3.7578 1.8789,3.7578 1.8789,9.3945 16.914,39.465 15.035,45.102 -1.8789,3.7578 -5.6367,1.8789 -5.6367,0 -3.7578,-3.7578 -9.3945,-18.793 -13.156,-24.43 -3.7578,-7.5156 -7.5156,-15.035 -11.273,-24.43 -1.8789,-5.6367 -7.5156,-16.914 -11.273,-20.672 -7.5156,-5.6367 -9.3945,37.582 -9.3945,39.465 0,5.6367 3.7578,22.551 0,24.43 -1.8789,3.7578 -3.7578,0 -3.7578,-1.8789 -1.8789,-3.7578 -3.7578,-13.156 -3.7578,-18.793 -1.8789,-7.5156 -1.8789,-16.914 -1.8789,-24.43 0,-3.7578 -3.7578,-33.824 -11.273,-18.793 -3.7578,7.5156 -7.5156,20.672 -9.3945,30.066 -1.8789,9.3945 -1.8789,18.793 -1.8789,28.188 v 18.793 c 1.8789,7.5156 0,16.914 0,26.309 1.8789,7.5156 1.8789,15.035 5.6367,24.43 1.8789,3.7578 3.7578,7.5156 5.6367,13.156 0,1.8789 3.7578,16.914 7.5156,18.793 1.8789,1.8789 -3.7578,5.6367 -7.5156,-1.8789 0,-1.8789 -1.8789,-5.6367 -1.8789,-5.6367 -1.8789,-5.6367 -3.7578,-9.3945 -5.6367,-13.156 -1.8789,-3.7578 -3.7578,-7.5156 -5.6367,-11.273 -3.7578,-7.5156 -9.3945,-39.465 -11.273,-15.035 0,3.7578 0,11.273 -3.7578,15.035 -7.5156,3.7578 -3.7578,-18.793 -3.7578,-20.672 v -30.066 c 0,-5.6367 3.7578,-26.309 -9.3945,-13.156 -5.6367,5.6367 -7.5156,15.035 -11.273,20.672 -1.8789,5.6367 -11.273,26.309 -16.914,28.188 -3.7578,0 -1.8789,-3.7578 -1.8789,-5.6367 1.8789,-7.5156 7.5156,-15.035 9.3945,-22.551 3.7578,-5.6367 3.7578,-9.3945 5.6367,-16.914 1.8789,-11.273 9.3945,-20.672 13.156,-31.945 3.7578,-11.273 7.5156,-22.551 7.5156,-33.824 v -13.156 c 0,-3.7578 0,-15.035 -3.7578,-16.914 h -1.8789 c -5.6367,-1.8789 -11.273,5.6367 -16.914,9.3945 -5.6367,5.6367 -3.7578,5.6367 -5.6367,11.273 -3.7578,7.5156 -7.5156,18.793 -11.273,26.309 -9.3945,18.793 -15.035,24.43 -15.035,46.98 0,5.6367 -1.8789,26.309 -5.6367,28.188 -3.7578,1.8789 -3.7578,-5.6367 -3.7578,-7.5156 v -18.793 c -1.8789,-7.5156 -1.8789,-13.156 -5.6367,-18.793 -1.8789,-7.5156 -1.8789,-11.273 1.8789,-16.914 5.6367,-7.5156 5.6367,0 13.156,-11.273 1.8789,-3.7578 9.3945,-18.793 7.5156,-20.672 0,-1.8789 -1.8789,-1.8789 -3.7578,-1.8789 -9.3945,-1.8789 -16.914,5.6367 -22.551,11.273 -9.3945,5.6367 -16.914,9.3945 -26.309,11.273 -1.8789,0 -9.3945,1.8789 -7.5156,-1.8789 0,-3.7578 13.156,-9.3945 18.793,-11.273 9.3945,-5.6367 13.156,-13.156 22.551,-20.672 7.5156,-5.6367 16.914,-9.3945 24.43,-15.035 11.273,-7.5156 13.156,-13.156 20.672,-22.551 5.6367,-3.7578 16.914,-15.035 16.914,-20.672 1.8789,-3.7578 0,-13.156 -3.7578,-15.035 -1.8789,-1.8789 -5.6367,-1.8789 -9.3945,-1.8789 -11.273,0 -30.066,5.6367 -37.582,13.156 -9.3945,5.6367 -15.035,16.914 -16.914,28.188 -5.6367,20.672 -18.793,22.551 -35.703,31.945 -1.8789,1.8789 -5.6367,3.7578 -7.5156,0 -1.8789,-5.6367 18.793,-13.156 22.551,-16.914 13.156,-9.3945 7.5156,-16.914 13.156,-28.188 9.3945,-26.309 16.914,-31.945 39.465,-45.102 13.156,-7.5156 28.188,-20.672 28.188,-37.582 0,-3.7578 -1.8789,-5.6367 -7.5156,-7.5156 -9.3945,-1.8789 -22.551,3.7578 -31.945,7.5156 -9.3945,5.6367 -26.309,16.914 -33.824,24.43 -5.6367,5.6367 -9.3945,9.3945 -13.156,13.156 -7.5156,7.5156 -15.035,16.914 -16.914,26.309 -5.6367,15.035 -7.5156,15.035 -18.793,26.309 -1.8789,1.8789 -5.6367,5.6367 -5.6367,1.8789 0,-1.8789 9.3945,-11.273 11.273,-15.035 5.6367,-7.5156 7.5156,-16.914 11.273,-24.43 5.6367,-9.3945 7.5156,-15.035 15.035,-22.551 5.6367,-5.6367 11.273,-13.156 16.914,-18.793 3.7578,-3.7578 22.551,-22.551 5.6367,-18.793 -7.5156,0 -16.914,5.6367 -24.43,9.3945 -16.914,9.3945 -28.188,33.824 -41.344,48.859 -11.273,11.273 -22.551,16.914 -35.703,24.43 -7.5156,3.7578 -7.5156,0 0,-5.6367 9.3945,-7.5156 16.914,-9.3945 26.309,-20.672 7.5156,-5.6367 15.035,-18.793 20.672,-28.188 9.3945,-13.156 16.914,-24.43 30.066,-31.945 16.914,-9.3945 24.43,-13.156 41.344,-16.914 13.156,-3.7578 35.703,-13.156 43.223,-22.551 5.6367,-5.6367 3.7578,-11.273 3.7578,-20.672 1.8789,-5.6367 1.8789,-13.156 1.8789,-20.672 z"
       fill-rule="evenodd"
       id="path2529" />
  </g>
</svg>
