<?xml version="1.0" encoding="UTF-8"?>
<svg width="700pt" height="700pt" version="1.1" viewBox="0 0 700 700" xmlns="http://www.w3.org/2000/svg" xmlns:cc="http://creativecommons.org/ns#" xmlns:dc="http://purl.org/dc/elements/1.1/" xmlns:rdf="http://www.w3.org/1999/02/22-rdf-syntax-ns#">
 <metadata>
  <rdf:RDF>
   <cc:Work rdf:about="">
    <dc:format>image/svg+xml</dc:format>
    <dc:type rdf:resource="http://purl.org/dc/dcmitype/StillImage"/>
    <dc:title/>
   </cc:Work>
  </rdf:RDF>
 </metadata>
 <path d="m196.33 99.785c0 10.797-8.7539 19.551-19.551 19.551s-19.551-8.7539-19.551-19.551 8.7539-19.551 19.551-19.551 19.551 8.7539 19.551 19.551"/>
 <path d="m261.27 447.07c-0.78125-4.9688-3.668-9.3594-7.9219-12.043-4.25-2.6875-9.4531-3.4102-14.277-1.9844-4.8242 1.4258-8.7969 4.8633-10.902 9.4336-2.1055 4.5664-2.1406 9.8203-0.0937 14.414 2.0508 4.5977 5.9805 8.082 10.785 9.5703 4.8047 1.4883 10.016 0.83203 14.301-1.8008l24.324 14.191c-4.3828-4.3828 0-23.215 0-23.215z"/>
 <path d="m136.57 303.21c-3.5273-2.5156-7.9961-3.3203-12.18-2.1953-4.1875 1.1211-7.6523 4.0547-9.4492 7.9961s-1.7383 8.4805 0.15625 12.379c1.8984 3.8945 5.4375 6.7383 9.6484 7.7539 4.2109 1.0195 8.6562 0.10156 12.121-2.5039 3.4648-2.6016 5.5859-6.6133 5.7852-10.941l30.797-7.9141-19.617 24.523h-1.1758c-3.8477 0-7.543 1.5273-10.266 4.25-2.7227 2.7227-4.25 6.418-4.25 10.266 0 3.8516 1.5273 7.543 4.25 10.266 2.7227 2.7227 6.418 4.25 10.266 4.25 3.8516 0 7.543-1.5273 10.266-4.25 2.7227-2.7227 4.25-6.4141 4.25-10.266-8e-3 -1.418-0.22656-2.8281-0.65234-4.1836l18.047-14.711s1.4375-5.8203 4.3828-23.215c1.8125-9.5742 1.8125-19.398 0-28.969-0.40625-3.2461-2.2617-6.1289-5.0469-7.8477-2.7812-1.7148-6.1953-2.0742-9.2734-0.98047-7.7812 1.6992-22.691 4.4453-33.547 6.5391-2.0547-4.0234-5.8672-6.8594-10.312-7.6719s-9.0156 0.49219-12.363 3.5273-5.0898 7.457-4.7148 11.957c0.375 4.5039 2.8242 8.5742 6.6289 11.016 3.8047 2.4375 8.5273 2.9688 12.773 1.4297 4.25-1.5352 7.543-4.9648 8.9062-9.2734h26.809z"/>
 <path d="m642.82 329.5c-8.6953-28.969-86.969-111.55-127.57-134.51 0 0 94.227 130.78 102.93 156.54-0.0703-0.26172 33.344 6.9336 24.648-22.035z"/>
 <path d="m322.99 292.1c18.832 0 33.871-18.832 31.977-30.145s-18.832-20.73-18.832-20.73-16.938-7.5195-28.25 3.793-9.418 33.871-9.418 33.871h4e-3c2.3672 4.3438 5.9453 7.9023 10.297 10.25 4.3555 2.3438 9.2969 3.375 14.223 2.9609z"/>
 <path d="m353.14 222.46c2.3789 4.3086 5.9531 7.832 10.293 10.152s9.2578 3.3359 14.16 2.9258c18.832 0 33.871-18.832 31.977-30.145-1.8945-11.312-18.832-20.73-18.832-20.73s-16.938-7.5195-28.25 3.793-9.3477 34.004-9.3477 34.004z"/>
 <path d="m426.57 158.44c18.832-9.418-1.8945-37.664-1.8945-37.664 0-5.625-31.977-24.457-31.977-24.457l1.8945 30.145c4e-3 0 13.145 41.391 31.977 31.977z"/>
 <path d="m505.63 305.3c-11.312 11.25-9.418 33.547-9.418 33.547 2.3828 4.3047 5.957 7.832 10.297 10.152 4.3398 2.3203 9.2578 3.3359 14.16 2.9258 18.832 0 33.871-18.832 31.977-30.145s-18.832-20.73-18.832-20.73-16.938-7.0625-28.184 4.25z"/>
 <path d="m563.96 286.54-26.156-37.664c1.832 43.223 26.156 37.664 26.156 37.664z"/>
 <path d="m371.97 386.2c-1.8945 7.5195 16.938 20.73 31.977 15.039 15.039-5.6875 16.938-28.25 7.5195-28.25s-39.496 13.211-39.496 13.211z"/>
 <path d="m494.32 459.62c22.559 0 18.832-26.156 18.832-26.156l-39.234 1.8945c0 4e-3 -2.2227 24.262 20.402 24.262z"/>
 <path d="m239.29 290.2c-4.707 11.312-1.8945 15.039 3.793 23.539s13.078-1.8945 13.078-1.8945l-0.91406-23.539s-11.312-9.3516-15.957 1.8945z"/>
 <path d="m221.38 355.13c-12.227 8.5-10.332 25.438-3.793 27.27 6.5391 1.832 21.645-10.332 16.938-24.457 0.0625 0-0.91797-11.246-13.145-2.8125z"/>
 <path d="m142.71 22.234 73.957 7.2578s-15.957-24.652-37.664-28.969c-18.641-3.793-31.719 14.91-35.445 20.27l-5.6875 1.7656z"/>
 <path d="m458.55 171.65c-5.6211 7.5195-15.039 45.184-56.234 88.734-41.195 43.551-47.996 58.852-111.49 49.109 21.773 26.156 102.2 56.562 102.2 56.562 21.902-6.3906 44.602-9.6484 67.418-9.6797 12.031-27.465 36.555-77.355 47.344-80.953 9.2188-3.0742 13.078-34.789 14.648-46.492-18.309-23.477-35.57-45.379-46.754-60.746h-4e-3c-6.5-8.6797-13.812-16.715-21.84-24 3.9219 10.922 7.3242 23.543 4.707 27.465z"/>
 <path d="m581.94 441.84c-15.711-4.3555-31.805-7.1797-48.062-8.4336v3.5312c-0.28516 11.895-3.5234 23.531-9.4141 33.871-9.418 15.039-52.703 15.039-58.328 0-5.0352-13.078-13.078-29.688-14.711-33.152-10.199 1.6328-20.988 3.7266-32.695 6.5391 0 0 71.93-34.789 136.99-23.934 0 0 21.773-21.773 26.156-34.789 0 0 26.156-6.5391 23.934-32.695-0.71875-8.6328-11.379-26.156-26.613-48.258 0 26.156-28.445 66.633-28.445 66.633l-34.066-5.3633-4e-3 4e-3c-27.328-1.0664-54.695 0.66406-81.672 5.1641 14.777 11.117 31.387 31.258 4.5781 39.758-35.77 11.312-37.664 30.145-62.121 30.145-8.8086-0.25781-17.566-1.375-26.156-3.3359 3.0234-0.89844 5.707-2.6758 7.7109-5.1133 2.0039-2.4336 3.2344-5.4141 3.5352-8.5508 0-7.5195 5.625-28.25-11.312-28.25 0 0-30.145 22.559-39.234 30.996-21.906 17.918-36.945 50.023 2.1562 65.391 39.102 15.367 104.62 30.473 163.08 15.234 58.457-15.234 86.969-10.855 86.969-10.855l-85.008 23.934s-50.023 20.664-159.62-8.957h4e-3c-9.2852-2.5664-17.945-7.0195-25.438-13.078l-10.66-8.5 4e-3 -4e-3c-21.77 1.8203-43.656 1.6445-65.391-0.52344-1.9805-4.6562-5.8867-8.2266-10.703-9.7812-4.8164-1.5547-10.07-0.94531-14.402 1.6758-4.332 2.6211-7.3125 6.9922-8.168 11.98-0.85938 4.9883 0.49219 10.105 3.6992 14.02 3.207 3.918 7.9531 6.25 13.016 6.3906 5.0586 0.14453 9.9297-1.918 13.352-5.6484l75.656 5.6875-38.254 15.629 4e-3 4e-3c-3.9102-3.2227-9.0312-4.5703-14.02-3.6914-4.9883 0.875-9.3438 3.8945-11.918 8.2539-2.5781 4.3594-3.1133 9.6289-1.4766 14.422 1.6406 4.793 5.2969 8.625 10.004 10.496 4.707 1.8672 9.9961 1.582 14.477-0.77734 4.4766-2.3633 7.6992-6.5664 8.8164-11.508 14.648-4.1211 48.781-13.078 60.617-13.078 15.234 0 58.852 10.855 111.16 10.855s152.23 6.5391 180.48-39.234c28.246-45.773-11.117-58.719-28.512-63.102z"/>
 <path d="m255.18 356.64c1.8711-6.6758 2.6211-13.613 2.2227-20.531-5.3633 21.449-45.445 95.207-58.852 89.586l4e-3 -4e-3c-7.4766-2.8516-13.094-9.1719-15.043-16.934l41.391-98.086 4e-3 -16.676c-0.40234-9.3477-2.1172-18.594-5.1016-27.461-0.875-2.8242-0.35156-5.8906 1.4023-8.2656 1.7578-2.375 4.5352-3.7734 7.4922-3.7695 11.965 0 22.363 13.93 24.129 16.477-1.1758-14.582-2.4844-27.789-3.793-35.637 0 0 17.395 26.156 17.395 45.773 0 0 33.805-45.316 41.328-67.941 7.5195-22.625 69.641-65.848 62.121-92.199l-4e-3 4e-3c-5.1719-16.355-11.738-32.238-19.617-47.473-13.535-7.5859-25.371-13.93-33.742-18.441-12.75-6.9297-52.312-19.094-89.062-28.117 0 0.39062-12.426 15.367-7.5195 42.633 3.3359 18.242-7.0625 22.754-14.516 23.738 0.55078 2.1367 0.83594 4.332 0.85156 6.5391-0.48438 10.285-6.25 19.59-15.25 24.602-8.9961 5.0078-19.945 5.0078-28.941 0-9-5.0117-14.766-14.316-15.25-24.602 0.0273-6.0234 2.0508-11.863 5.7539-16.609-14.387 0-50.875-0.71875-56.891-3.7266h0.0039c-7.9414-5.0547-15.543-10.625-22.758-16.676-2.2578 5.0391-3.0312 10.621-2.2227 16.086 5.1016 28.969 26.156 47.867 36.945 58.852 10.789 10.984 29.23 57.215 85.793 87.359 0 0 23.215 58 7.9766 92.789-15.234 34.789-26.156 50.023-41.328 86.969 0 0-43.484-6.5391-56.562-15.234-5.2969-3.5312-9.8086-6.5391-13.078-9.1562h0.0039c0.85547-5.125-0.625-10.363-4.0352-14.281-3.4102-3.9219-8.3945-6.1094-13.59-5.9688-5.1914 0.13672-10.051 2.5898-13.246 6.6875-3.1953 4.0977-4.3945 9.4062-3.2656 14.48 1.1289 5.0703 4.4688 9.3711 9.0977 11.723 4.6328 2.3555 10.074 2.5156 14.836 0.4375 11.117 9.4805 30.016 24.586 43.156 28.969l-37.008 25.5c-4.3672-2.543-9.625-3.0625-14.402-1.4219-4.7812 1.6406-8.6094 5.2812-10.496 9.9688-1.8828 4.6875-1.6328 9.9648 0.68359 14.457 2.3164 4.4922 6.4688 7.7539 11.383 8.9375 4.9141 1.1836 10.098 0.17187 14.207-2.7695 4.1055-2.9453 6.7305-7.5273 7.1914-12.562 16.02-8.1055 45.773-22.82 52.309-22.82 8.6953 0 50.023 6.5391 71.93-8.6953 16.152-11.574 30.211-55.977 35.965-76.508z"/>
 <path d="m105.96 56.824c6.5391 2.4844 41.391-1.2422 32.695-17.59-3.1562-3.043-7.2422-4.9414-11.605-5.3945-4.3594-0.44922-8.7461 0.57422-12.457 2.9102-14.91 7.8477-14.91 17.59-8.6328 20.074z"/>
 <path d="m198.88 44.598c-1.1133-6.5391-11.312-12.488-11.312-12.488v-0.0039c-2.7656-1.2383-5.8203-1.6797-8.8242-1.2734-3.0039 0.40234-5.8359 1.6367-8.1758 3.5625-4.3281 5.875-6.3555 13.133-5.6875 20.402 1.4258 2.5977 3.5742 4.7266 6.1836 6.1289 2.6133 1.4062 5.5742 2.0234 8.5273 1.7852 11.312-0.13281 20.402-11.574 19.289-18.113z"/>
</svg>
