<?xml version="1.0" encoding="UTF-8" standalone="no"?>
<svg
   xmlns:dc="http://purl.org/dc/elements/1.1/"
   xmlns:cc="http://creativecommons.org/ns#"
   xmlns:rdf="http://www.w3.org/1999/02/22-rdf-syntax-ns#"
   xmlns:svg="http://www.w3.org/2000/svg"
   xmlns="http://www.w3.org/2000/svg"
   xmlns:sodipodi="http://sodipodi.sourceforge.net/DTD/sodipodi-0.dtd"
   xmlns:inkscape="http://www.inkscape.org/namespaces/inkscape"
   width="700pt"
   height="700pt"
   version="1.1"
   viewBox="0 0 700 700"
   id="svg1116"
   sodipodi:docname="noun-seed-10377.svg"
   inkscape:version="1.0.1 (c497b03c, 2020-09-10)">
  <metadata
     id="metadata1120">
    <rdf:RDF>
      <cc:Work
         rdf:about="">
        <dc:format>image/svg+xml</dc:format>
        <dc:type
           rdf:resource="http://purl.org/dc/dcmitype/StillImage" />
        <dc:title></dc:title>
      </cc:Work>
    </rdf:RDF>
  </metadata>
  <sodipodi:namedview
     pagecolor="#ffffff"
     bordercolor="#666666"
     borderopacity="1"
     objecttolerance="10"
     gridtolerance="10"
     guidetolerance="10"
     inkscape:pageopacity="0"
     inkscape:pageshadow="2"
     inkscape:window-width="1920"
     inkscape:window-height="1052"
     id="namedview1118"
     showgrid="false"
     inkscape:zoom="0.7875"
     inkscape:cx="466.66667"
     inkscape:cy="466.66667"
     inkscape:window-x="0"
     inkscape:window-y="0"
     inkscape:window-maximized="0"
     inkscape:current-layer="g1114" />
  <defs
     id="defs1030">
    <symbol
       id="v"
       overflow="visible">
      <path
         d="m19.734-1.1719c-1.0234 0.52344-2.0859 0.91797-3.1875 1.1875-1.0938 0.26953-2.2461 0.40625-3.4531 0.40625-3.5742 0-6.4062-1-8.5-3-2.0859-2-3.125-4.7109-3.125-8.1406 0-3.4258 1.0391-6.1406 3.125-8.1406 2.0938-2 4.9258-3 8.5-3 1.207 0 2.3594 0.13672 3.4531 0.40625 1.1016 0.27344 2.1641 0.66797 3.1875 1.1875v4.4531c-1.0312-0.70703-2.0469-1.2227-3.0469-1.5469-0.99219-0.32031-2.0391-0.48438-3.1406-0.48438-1.9805 0-3.5391 0.63672-4.6719 1.9062-1.125 1.2617-1.6875 3-1.6875 5.2188s0.5625 3.9648 1.6875 5.2344c1.1328 1.2617 2.6914 1.8906 4.6719 1.8906 1.1016 0 2.1484-0.16016 3.1406-0.48438 1-0.33203 2.0156-0.84766 3.0469-1.5469z"
         id="path964" />
    </symbol>
    <symbol
       id="d"
       overflow="visible">
      <path
         d="m14.438-11.719c-0.44922-0.20703-0.89844-0.36328-1.3438-0.46875-0.44922-0.10156-0.89844-0.15625-1.3438-0.15625-1.3242 0-2.3438 0.42969-3.0625 1.2812-0.71094 0.84375-1.0625 2.0586-1.0625 3.6406v7.4219h-5.1562v-16.109h5.1562v2.6406c0.65625-1.0508 1.4102-1.8164 2.2656-2.2969 0.86328-0.48828 1.8945-0.73438 3.0938-0.73438 0.17578 0 0.36328 0.011719 0.5625 0.03125 0.19531 0.011719 0.48828 0.042969 0.875 0.09375z"
         id="path967" />
    </symbol>
    <symbol
       id="c"
       overflow="visible">
      <path
         d="m18.547-8.0938v1.4688h-12.031c0.125 1.2109 0.55469 2.1172 1.2969 2.7188 0.75 0.60547 1.7969 0.90625 3.1406 0.90625 1.082 0 2.1914-0.16016 3.3281-0.48438 1.1328-0.32031 2.3047-0.8125 3.5156-1.4688v3.9688c-1.2188 0.46875-2.4375 0.82031-3.6562 1.0469-1.2188 0.23828-2.4375 0.35938-3.6562 0.35938-2.918 0-5.1836-0.73828-6.7969-2.2188-1.6172-1.4883-2.4219-3.5703-2.4219-6.25 0-2.625 0.78906-4.6875 2.375-6.1875 1.5938-1.5078 3.7812-2.2656 6.5625-2.2656 2.5312 0 4.5508 0.76562 6.0625 2.2969 1.5195 1.5234 2.2812 3.5586 2.2812 6.1094zm-5.2812-1.7188c0-0.97656-0.28906-1.7656-0.85938-2.3594-0.57422-0.60156-1.3203-0.90625-2.2344-0.90625-1 0-1.8125 0.28125-2.4375 0.84375s-1.0117 1.3711-1.1562 2.4219z"
         id="path970" />
    </symbol>
    <symbol
       id="e"
       overflow="visible">
      <path
         d="m9.6875-7.25c-1.0742 0-1.8828 0.18359-2.4219 0.54688-0.54297 0.36719-0.8125 0.90234-0.8125 1.6094 0 0.65625 0.21875 1.1719 0.65625 1.5469 0.4375 0.36719 1.0469 0.54688 1.8281 0.54688 0.96875 0 1.7812-0.34766 2.4375-1.0469 0.66406-0.69531 1-1.5664 1-2.6094v-0.59375zm7.875-1.9375v9.1875h-5.1875v-2.3906c-0.69922 0.98047-1.4805 1.6953-2.3438 2.1406-0.85547 0.44531-1.9023 0.67188-3.1406 0.67188-1.668 0-3.0234-0.48438-4.0625-1.4531-1.043-0.97656-1.5625-2.2422-1.5625-3.7969 0-1.8945 0.64453-3.2812 1.9375-4.1562 1.3008-0.88281 3.3438-1.3281 6.125-1.3281h3.0469v-0.40625c0-0.8125-0.32422-1.4062-0.96875-1.7812-0.64844-0.38281-1.6484-0.57812-3-0.57812-1.1055 0-2.1367 0.11719-3.0938 0.34375-0.94922 0.21875-1.8281 0.54688-2.6406 0.98438v-3.9219c1.1016-0.26953 2.2109-0.47266 3.3281-0.60938 1.1133-0.14453 2.2227-0.21875 3.3281-0.21875 2.9062 0 5.0039 0.57422 6.2969 1.7188 1.2891 1.1484 1.9375 3.0117 1.9375 5.5938z"
         id="path973" />
    </symbol>
    <symbol
       id="a"
       overflow="visible">
      <path
         d="m8.0938-20.688v4.5781h5.3125v3.6875h-5.3125v6.8281c0 0.75 0.14453 1.2578 0.4375 1.5156 0.30078 0.26172 0.89453 0.39062 1.7812 0.39062h2.6406v3.6875h-4.4062c-2.0312 0-3.4766-0.42188-4.3281-1.2656-0.84375-0.85156-1.2656-2.2969-1.2656-4.3281v-6.8281h-2.5625v-3.6875h2.5625v-4.5781z"
         id="path976" />
    </symbol>
    <symbol
       id="i"
       overflow="visible">
      <path
         d="m13.438-13.75v-8.625h5.1719v22.375h-5.1719v-2.3281c-0.71094 0.94922-1.4922 1.6484-2.3438 2.0938-0.85547 0.4375-1.8438 0.65625-2.9688 0.65625-1.9805 0-3.6094-0.78516-4.8906-2.3594-1.2734-1.582-1.9062-3.6172-1.9062-6.1094 0-2.4766 0.63281-4.5039 1.9062-6.0781 1.2812-1.582 2.9102-2.375 4.8906-2.375 1.1133 0 2.0977 0.22656 2.9531 0.67188 0.86328 0.44922 1.6484 1.1406 2.3594 2.0781zm-3.4062 10.422c1.1016 0 1.9453-0.39844 2.5312-1.2031 0.58203-0.80078 0.875-1.9727 0.875-3.5156 0-1.5312-0.29297-2.6953-0.875-3.5-0.58594-0.80078-1.4297-1.2031-2.5312-1.2031-1.0859 0-1.918 0.40234-2.5 1.2031-0.58594 0.80469-0.875 1.9688-0.875 3.5 0 1.543 0.28906 2.7148 0.875 3.5156 0.58203 0.80469 1.4141 1.2031 2.5 1.2031z"
         id="path979" />
    </symbol>
    <symbol
       id="h"
       overflow="visible">
      <path
         d="m11.047-3.3281c1.1016 0 1.9414-0.39844 2.5156-1.2031 0.58203-0.80078 0.875-1.9727 0.875-3.5156 0-1.5312-0.29297-2.6953-0.875-3.5-0.57422-0.80078-1.4141-1.2031-2.5156-1.2031-1.1055 0-1.9531 0.40625-2.5469 1.2188-0.58594 0.80469-0.875 1.9648-0.875 3.4844 0 1.5312 0.28906 2.7031 0.875 3.5156 0.59375 0.80469 1.4414 1.2031 2.5469 1.2031zm-3.4219-10.422c0.70703-0.9375 1.4922-1.6289 2.3594-2.0781 0.86328-0.44531 1.8516-0.67188 2.9688-0.67188 1.9883 0 3.6172 0.79297 4.8906 2.375 1.2812 1.5742 1.9219 3.6016 1.9219 6.0781 0 2.4922-0.64062 4.5273-1.9219 6.1094-1.2734 1.5742-2.9023 2.3594-4.8906 2.3594-1.1172 0-2.1055-0.22656-2.9688-0.67188-0.86719-0.44531-1.6523-1.1406-2.3594-2.0781v2.3281h-5.1562v-22.375h5.1562z"
         id="path982" />
    </symbol>
    <symbol
       id="g"
       overflow="visible">
      <path
         d="m0.35938-16.109h5.1562l4.3281 10.938 3.6719-10.938h5.1562l-6.7812 17.641c-0.67969 1.7891-1.4688 3.0391-2.375 3.75-0.90625 0.71875-2.1055 1.0781-3.5938 1.0781h-2.9688v-3.375h1.6094c0.875 0 1.5078-0.14062 1.9062-0.42188 0.39453-0.28125 0.70312-0.78125 0.92188-1.5l0.14062-0.4375z"
         id="path985" />
    </symbol>
    <symbol
       id="f"
       overflow="visible">
      <path
         d="m2.7031-21.469h7.0469l4.8906 11.484 4.9219-11.484h7.0312v21.469h-5.2344v-15.703l-4.9531 11.578h-3.5l-4.9531-11.578v15.703h-5.25z"
         id="path988" />
    </symbol>
    <symbol
       id="u"
       overflow="visible">
      <path
         d="m11.297-13.156c0.875 0 1.5352-0.19141 1.9844-0.57812 0.45703-0.38281 0.6875-0.95312 0.6875-1.7031 0-0.72656-0.23047-1.2852-0.6875-1.6719-0.44922-0.39453-1.1094-0.59375-1.9844-0.59375h-3.0625v4.5469zm0.1875 9.3906c1.1133 0 1.9531-0.23438 2.5156-0.70312s0.84375-1.1758 0.84375-2.125c0-0.9375-0.28125-1.6328-0.84375-2.0938-0.55469-0.46875-1.3906-0.70312-2.5156-0.70312h-3.25v5.625zm5.1562-7.7188c1.1875 0.34375 2.1016 0.98047 2.75 1.9062 0.65625 0.92969 0.98438 2.0703 0.98438 3.4219 0 2.0742-0.70312 3.6211-2.1094 4.6406-1.3984 1.0117-3.5234 1.5156-6.375 1.5156h-9.1875v-21.469h8.3125c2.9766 0 5.1328 0.45312 6.4688 1.3594 1.3438 0.89844 2.0156 2.3359 2.0156 4.3125 0 1.0547-0.24609 1.9492-0.73438 2.6875-0.49219 0.73047-1.1992 1.2734-2.125 1.625z"
         id="path991" />
    </symbol>
    <symbol
       id="b"
       overflow="visible">
      <path
         d="m10.141-12.812c-1.1484 0-2.0234 0.41406-2.625 1.2344-0.59375 0.8125-0.89062 1.9922-0.89062 3.5312 0 1.5547 0.29688 2.7422 0.89062 3.5625 0.60156 0.8125 1.4766 1.2188 2.625 1.2188 1.125 0 1.9844-0.40625 2.5781-1.2188 0.59375-0.82031 0.89062-2.0078 0.89062-3.5625 0-1.5391-0.29688-2.7188-0.89062-3.5312-0.59375-0.82031-1.4531-1.2344-2.5781-1.2344zm0-3.6875c2.7695 0 4.9297 0.75 6.4844 2.25 1.5625 1.4922 2.3438 3.5586 2.3438 6.2031 0 2.6562-0.78125 4.7344-2.3438 6.2344-1.5547 1.4922-3.7148 2.2344-6.4844 2.2344-2.7812 0-4.9609-0.74219-6.5312-2.2344-1.5625-1.5-2.3438-3.5781-2.3438-6.2344 0-2.6445 0.78125-4.7109 2.3438-6.2031 1.5703-1.5 3.75-2.25 6.5312-2.25z"
         id="path994" />
    </symbol>
    <symbol
       id="t"
       overflow="visible">
      <path
         d="m2.4688-22.375h5.1562v12.172l5.9219-5.9062h5.9844l-7.875 7.3906 8.4844 8.7188h-6.2344l-6.2812-6.7188v6.7188h-5.1562z"
         id="path997" />
    </symbol>
    <symbol
       id="s"
       overflow="visible">
      <path
         d="m15.062-15.609v3.9219c-1.1055-0.45703-2.1719-0.80078-3.2031-1.0312-1.0234-0.23828-1.9922-0.35938-2.9062-0.35938-0.96875 0-1.6953 0.125-2.1719 0.375-0.48047 0.24219-0.71875 0.61719-0.71875 1.125 0 0.41797 0.17578 0.73438 0.53125 0.95312 0.36328 0.21875 1.0156 0.38281 1.9531 0.48438l0.90625 0.125c2.6328 0.34375 4.4062 0.90234 5.3125 1.6719 0.91406 0.76172 1.375 1.9609 1.375 3.5938 0 1.7188-0.63672 3.0117-1.9062 3.875-1.2617 0.86719-3.1484 1.2969-5.6562 1.2969-1.0742 0-2.1797-0.089844-3.3125-0.26562-1.1367-0.16406-2.3047-0.41406-3.5-0.75v-3.9062c1.0312 0.5 2.082 0.875 3.1562 1.125 1.082 0.25 2.1797 0.375 3.2969 0.375 1 0 1.7539-0.14062 2.2656-0.42188 0.50781-0.28125 0.76562-0.69141 0.76562-1.2344 0-0.45703-0.17969-0.80078-0.53125-1.0312-0.34375-0.22656-1.043-0.40625-2.0938-0.53125l-0.90625-0.10938c-2.293-0.28906-3.8984-0.82031-4.8125-1.5938-0.91797-0.78125-1.375-1.9609-1.375-3.5469 0-1.6953 0.58203-2.957 1.75-3.7812 1.1641-0.83203 2.957-1.25 5.375-1.25 0.94531 0 1.9414 0.074219 2.9844 0.21875 1.0508 0.14844 2.1914 0.37109 3.4219 0.67188z"
         id="path1000" />
    </symbol>
    <symbol
       id="r"
       overflow="visible">
      <path
         d="m13.078-22.375v3.375h-2.8594c-0.73047 0-1.2422 0.13672-1.5312 0.40625-0.28125 0.26172-0.42188 0.71484-0.42188 1.3594v1.125h4.4062v3.6875h-4.4062v12.422h-5.1406v-12.422h-2.5625v-3.6875h2.5625v-1.125c0-1.75 0.48438-3.0391 1.4531-3.875 0.97656-0.84375 2.4922-1.2656 4.5469-1.2656z"
         id="path1003" />
    </symbol>
    <symbol
       id="q"
       overflow="visible">
      <path
         d="m17.406-13.438c0.64453-0.98828 1.4141-1.7422 2.3125-2.2656 0.89453-0.53125 1.8789-0.79688 2.9531-0.79688 1.8516 0 3.2656 0.57422 4.2344 1.7188 0.96875 1.1367 1.4531 2.793 1.4531 4.9688v9.8125h-5.1719v-8.4062c0.007812-0.11328 0.015625-0.23828 0.015625-0.375 0.007813-0.13281 0.015625-0.32812 0.015625-0.57812 0-1.1445-0.17188-1.9727-0.51562-2.4844-0.33594-0.50781-0.875-0.76562-1.625-0.76562-0.98047 0-1.7344 0.40234-2.2656 1.2031-0.53125 0.80469-0.80859 1.9688-0.82812 3.5v7.9062h-5.1719v-8.4062c0-1.7812-0.15625-2.9258-0.46875-3.4375-0.30469-0.50781-0.84375-0.76562-1.625-0.76562-0.99219 0-1.7578 0.40625-2.2969 1.2188-0.53125 0.80469-0.79688 1.9609-0.79688 3.4688v7.9219h-5.1875v-16.109h5.1875v2.3594c0.63281-0.90625 1.3594-1.5859 2.1719-2.0469 0.82031-0.46875 1.7266-0.70312 2.7188-0.70312 1.1133 0 2.0938 0.27344 2.9375 0.8125 0.85156 0.53125 1.5039 1.2812 1.9531 2.25z"
         id="path1006" />
    </symbol>
    <symbol
       id="p"
       overflow="visible">
      <path
         d="m18.672-9.8125v9.8125h-5.1875v-7.4844c0-1.4062-0.03125-2.3672-0.09375-2.8906-0.0625-0.53125-0.16797-0.92188-0.3125-1.1719-0.21094-0.33203-0.48438-0.59375-0.82812-0.78125s-0.73438-0.28125-1.1719-0.28125c-1.0742 0-1.918 0.41797-2.5312 1.25-0.61719 0.82422-0.92188 1.9688-0.92188 3.4375v7.9219h-5.1562v-22.375h5.1562v8.625c0.76953-0.9375 1.5938-1.6289 2.4688-2.0781 0.875-0.44531 1.8359-0.67188 2.8906-0.67188 1.8633 0 3.2734 0.57422 4.2344 1.7188 0.96875 1.1367 1.4531 2.793 1.4531 4.9688z"
         id="path1009" />
    </symbol>
    <symbol
       id="o"
       overflow="visible">
      <path
         d="m2.7031-21.469h6.1875l7.8125 14.719v-14.719h5.25v21.469h-6.1875l-7.8125-14.734v14.734h-5.25z"
         id="path1012" />
    </symbol>
    <symbol
       id="n"
       overflow="visible">
      <path
         d="m2.2969-6.2656v-9.8438h5.1875v1.6094c0 0.875-0.007813 1.9766-0.015625 3.2969-0.011719 1.3125-0.015625 2.1875-0.015625 2.625 0 1.3047 0.03125 2.2422 0.09375 2.8125 0.070313 0.5625 0.1875 0.97656 0.34375 1.2344 0.21875 0.33594 0.49219 0.59375 0.82812 0.78125 0.34375 0.17969 0.73438 0.26562 1.1719 0.26562 1.0703 0 1.9141-0.41016 2.5312-1.2344 0.61328-0.82031 0.92188-1.9688 0.92188-3.4375v-7.9531h5.1562v16.109h-5.1562v-2.3281c-0.77344 0.9375-1.5938 1.6328-2.4688 2.0781-0.86719 0.44531-1.8203 0.67188-2.8594 0.67188-1.8672 0-3.2891-0.56641-4.2656-1.7031-0.96875-1.1445-1.4531-2.8047-1.4531-4.9844z"
         id="path1015" />
    </symbol>
    <symbol
       id="m"
       overflow="visible">
      <path
         d="m18.672-9.8125v9.8125h-5.1875v-7.5c0-1.3945-0.03125-2.3516-0.09375-2.875-0.0625-0.53125-0.16797-0.92188-0.3125-1.1719-0.21094-0.33203-0.48438-0.59375-0.82812-0.78125s-0.73438-0.28125-1.1719-0.28125c-1.0742 0-1.918 0.41797-2.5312 1.25-0.61719 0.82422-0.92188 1.9688-0.92188 3.4375v7.9219h-5.1562v-16.109h5.1562v2.3594c0.76953-0.9375 1.5938-1.6289 2.4688-2.0781 0.875-0.44531 1.8359-0.67188 2.8906-0.67188 1.8633 0 3.2734 0.57422 4.2344 1.7188 0.96875 1.1367 1.4531 2.793 1.4531 4.9688z"
         id="path1018" />
    </symbol>
    <symbol
       id="l"
       overflow="visible">
      <path
         d="m2.7031-21.469h9.1875c2.7266 0 4.8203 0.60938 6.2812 1.8281 1.4688 1.2109 2.2031 2.9336 2.2031 5.1719 0 2.25-0.73438 3.9844-2.2031 5.2031-1.4609 1.2109-3.5547 1.8125-6.2812 1.8125h-3.6562v7.4531h-5.5312zm5.5312 4.0156v5.9844h3.0625c1.082 0 1.9141-0.25781 2.5-0.78125 0.58203-0.51953 0.875-1.2578 0.875-2.2188 0-0.95703-0.29297-1.6914-0.875-2.2031-0.58594-0.51953-1.418-0.78125-2.5-0.78125z"
         id="path1021" />
    </symbol>
    <symbol
       id="k"
       overflow="visible">
      <path
         d="m2.4688-16.109h5.1562v15.828c0 2.1562-0.52344 3.8008-1.5625 4.9375-1.0312 1.1328-2.5312 1.7031-4.5 1.7031h-2.5469v-3.375h0.89062c0.97656 0 1.6484-0.22656 2.0156-0.67188 0.36328-0.4375 0.54688-1.3047 0.54688-2.5938zm0-6.2656h5.1562v4.2031h-5.1562z"
         id="path1024" />
    </symbol>
    <symbol
       id="j"
       overflow="visible">
      <path
         d="m15.484-15.609v4.2031c-0.69922-0.47656-1.4023-0.83203-2.1094-1.0625-0.69922-0.22656-1.4297-0.34375-2.1875-0.34375-1.4375 0-2.5586 0.42188-3.3594 1.2656-0.80469 0.83594-1.2031 2-1.2031 3.5 0 1.5117 0.39844 2.6875 1.2031 3.5312 0.80078 0.83594 1.9219 1.25 3.3594 1.25 0.80078 0 1.5625-0.11719 2.2812-0.35938 0.72656-0.23828 1.3984-0.59375 2.0156-1.0625v4.2188c-0.80469 0.29297-1.6211 0.50781-2.4531 0.65625-0.82422 0.15625-1.6523 0.23438-2.4844 0.23438-2.9062 0-5.1836-0.74219-6.8281-2.2344-1.6367-1.5-2.4531-3.5781-2.4531-6.2344 0-2.6445 0.81641-4.7109 2.4531-6.2031 1.6445-1.5 3.9219-2.25 6.8281-2.25 0.84375 0 1.6719 0.078125 2.4844 0.23438 0.82031 0.14844 1.6406 0.36719 2.4531 0.65625z"
         id="path1027" />
    </symbol>
  </defs>
  <g
     id="g1114">
    <path
       d="m 644.36,6.7148 c -0.24609,-3.1992 -2.5547,-5.8555 -5.6914,-6.543 -3.1211,-0.6875 -6.332,0.74609 -7.9102,3.5469 -0.21875,0.40625 -22.883,39.898 -67.906,39.898 -9.4844,0 -19.473,-1.7539 -29.668,-5.2188 -18.059,-6.1445 -34.402,-9.2578 -48.566,-9.2578 -43.668,0 -55.594,28.762 -58.215,37.57 -0.66406,2.2695 -1.0781,4.9062 -1.3594,7.6797 -2.1211,-0.96094 -4.4805,-1.4961 -6.9688,-1.3711 -47.219,3.375 -80.781,35.441 -97.266,92.797 -1.7773,-2.75 -3.7109,-5.4375 -5.8203,-8.0391 -16.344,-20.172 -39.656,-31.562 -69.289,-33.844 -0.38281,-0.0312 -0.74609,0.0234 -1.1328,0.0234 0.0469,-6.0234 -0.85547,-11.469 -2.4727,-15.703 -2.5547,-6.6602 -13.406,-28.402003 -45.883,-28.402003 -13.301,0 -28.754,3.7344 -45.922,11.102 -9.7695,4.1836 -19.395,6.3008 -28.613,6.3008 -33.348,0 -52.66,-28.043 -52.844,-28.312 -1.7773,-2.668 -5.0938,-3.8633 -8.1562,-2.9258 -3.0703,0.92969 -5.168,3.7578 -5.168,6.9609 0,0.92969 1.0078,93.320003 87.996,110.720003 10.066,2.0078 19.645,3.0352 28.473,3.0352 34.805,0 52.703,-15.402 61.59,-28.332 1.6016,-2.332 2.9922,-4.7227 4.2188,-7.125 1.7148,0.90625 3.6211,1.4961 5.6797,1.6562 21.594,1.6602 37.566,9.1992 48.832,23.055 12.906,15.863 17.07,37.113 18.176,53.246 -0.28125,4.8008 -0.42969,9.0273 -0.49609,12.691 -19.512,5.3242 -46.508,16.469 -60.082,39.02 -56.891,94.543 -29.402,176.03 -28.09,179.77 1.168,11.852 3.2461,23.695 6.5078,35.523 14.555,52.695 41.074,63.766 60.762,63.766 30.98,0 58.629,-27.637 65.496,-35.07 14.148,-9.7109 107.11,-77.848 98.969,-184.41 -6.9453,-91.27 -55.207,-115.38 -79.75,-115.38 -10.895,0 -22.242,3.2578 -33.938,9.4492 -0.0469,-1.7148 -0.11719,-3.4883 -0.22266,-5.3359 2.6758,-41.941 16.211,-122.63 80.516,-127.22 2.8203,-0.20703 5.3711,-1.2305 7.5039,-2.793003 2.3164,7.828103 6.0625,15.867003 11.656,23.367003 10.332,13.848 30.352,30.363 67.074,30.367 h 0.0195 c 13.312,0 27.973,-2.2266 43.59,-6.625 101.74,-28.66 94.453,-138.530003 94.371,-139.640003 z m -422.78,143.45 c -13.375,19.438 -39.988,26.309 -75.219,19.273 -51.699,-10.34 -68.371,-50.504 -73.758,-75.672 10.98,8.9102 27.48,18.027 49.07,18.027 11.191,0 22.746,-2.5195 34.34,-7.4844 15.355,-6.5859 28.879,-9.9258 40.199,-9.9258 22.562,0 30.098,13.328 32.293,19.055 2.5312,6.6289 2.8984,22.441 -6.9258,36.727 z m 152.21,104.07 c 30.352,0 47.949,51.762 50.746,88.512 6.4453,84.371 -66.043,143.22 -83.668,156.21 2.5977,-4.3984 4.3516,-7.4961 4.5781,-7.9023 1.9688,-3.5039 0.73047,-7.9414 -2.7734,-9.9062 -3.5117,-1.9961 -7.9336,-0.73047 -9.9023,2.7734 -5.0781,9.0117 -19.973,34.137 -27.895,42.059 -0.30469,0.30469 -0.44922,0.69531 -0.6875,1.043 -5.0547,2.3398 -10.227,3.8984 -15.113,3.8984 -13.941,0 -24.949,-14.277 -32.723,-42.418 -18.812,-68.129 2.0898,-135.33 62.137,-199.71 21.074,-22.609 40.207,-34.551 55.301,-34.551 z m 172.26,-121.89 c -14.344,4.0391 -27.672,6.0859 -39.652,6.0859 h -0.0195 c -30.688,0 -47.07,-13.34 -55.414,-24.527 -10.879,-14.578 -13.594,-33.066 -10.625,-43.055 2.4219,-8.168 11.586,-27.172 44.27,-27.172 12.57,0 27.336,2.8555 43.879,8.4883 11.711,3.9766 23.266,5.9961 34.355,5.9961 31.422,0 53.379,-15.684 66.367,-29.008 -3.2344,30.547 -18.293,84.926 -83.16,103.19 z"
       id="path1032" />
    <path
       d="m 383.71,403.88 c -1.9922,3.4922 -0.78516,7.9297 2.7031,9.9258 1.1367,0.65234 2.3789,0.96094 3.5977,0.96094 2.5312,0 4.9844,-1.3203 6.3203,-3.6641 30.574,-53.523 -4.3281,-131.93 -5.8359,-135.25 -1.6562,-3.6641 -5.9844,-5.2852 -9.6172,-3.6211 -3.6641,1.6602 -5.2773,5.9727 -3.6172,9.6289 0.33594,0.73438 33.371,74.891 6.4492,122.02 z"
       id="path1034" />
    <path
       d="m 531.93,74.012 c -39.645,-23.789 -78.57,-0.98438 -80.203,0 -3.4336,2.0625 -4.543,6.5156 -2.4961,9.9531 2.0625,3.4453 6.5078,4.5703 9.9648,2.5273 1.3359,-0.79688 33.195,-19.262 65.25,-0.01172 1.1719,0.70703 2.457,1.0352 3.7344,1.0352 2.4727,0 4.8828,-1.2539 6.25,-3.5273 2.0586,-3.4453 0.94531,-7.9102 -2.5,-9.9766 z"
       id="path1036" />
    <path
       d="m 211.95,120.07 c -32.449,-19.473 -64.312,-0.8125 -65.656,0 -3.4414,2.0664 -4.5586,6.5312 -2.4922,9.9766 2.0625,3.4453 6.5312,4.5586 9.9727,2.4922 0.25781,-0.14062 25.629,-15.023 50.695,0 1.168,0.69922 2.4609,1.0352 3.7344,1.0352 2.4688,0 4.875,-1.2539 6.2422,-3.5273 2.0664,-3.4453 0.94922,-7.9102 -2.4961,-9.9766 z"
       id="path1038" />
  </g>
</svg>
